<?xml version="1.0" encoding="utf-8"?>
<!-- Svg Vector Icons : http://www.onlinewebfonts.com/icon -->
<!DOCTYPE svg PUBLIC "-//W3C//DTD SVG 1.1//EN" "http://www.w3.org/Graphics/SVG/1.1/DTD/svg11.dtd">
<svg version="1.1" xmlns="http://www.w3.org/2000/svg" xmlns:xlink="http://www.w3.org/1999/xlink" x="0px" y="0px" viewBox="0 0 1000 1000" enable-background="new 0 0 1000 1000" xml:space="preserve">
<metadata> Svg Vector Icons : http://www.onlinewebfonts.com/icon </metadata>
<g><g transform="translate(0.000000,511.000000) scale(0.100000,-0.100000)"><path d="M560.3,3054.6C387.7,3012.4,230.4,2882,147.9,2717l-47.9-95.9V108.8v-2512.3l53.7-109.3c57.5-118.9,159.2-220.5,285.8-287.7l82.5-44.1l2577.5-5.7c2330.1-3.8,2581.4-1.9,2623.6,26.8c80.6,51.8,101.6,136.2,101.6,410.4v253.2l55.6,55.6c63.3,63.3,159.2,74.8,249.3,28.8c82.5-44.1,97.8-103.6,97.8-377.8c0-278.1,19.2-341.4,109.3-379.7c40.3-15.3,456.4-21.1,1597.5-17.2l1543.8,5.7l82.5,44.1c126.6,67.1,228.2,168.8,285.8,287.7l53.7,109.3V108.8v2512.3L9852,2717c-59.4,122.7-174.5,237.8-297.3,297.3l-95.9,47.9l-1549.6,5.7l-1551.5,3.8l-65.2-65.2l-65.2-65.2v-260.8c0-301.1-19.2-362.5-128.5-406.6c-82.5-36.4-178.4-9.6-235.9,63.3c-34.5,44.1-38.3,78.6-38.3,297.3c0,170.7-7.7,266.6-26.9,312.6c-55.6,134.2,130.4,124.7-2661.9,122.7C1751.2,3068,592.9,3062.2,560.3,3054.6z M5408.5,2488.8c5.7-118.9,23-211,47.9-268.5c51.8-113.2,193.7-264.7,291.5-308.8c61.4-28.8,76.7-44.1,76.7-86.3c0-65.2,57.5-141.9,132.3-172.6c113.1-46,270.4,59.5,270.4,182.2c0,26.8,28.8,53.7,86.3,84.4c101.6,53.7,201.4,159.2,260.8,274.3c32.6,63.3,46,128.5,53.7,274.2l11.5,191.8l1338.6,5.7c1189,3.8,1346.3,0,1403.8-26.8c132.3-61.4,124.7,99.7,124.7-2527.7c0-2006-3.8-2381.9-26.9-2437.5c-55.6-130.4,3.8-124.7-1497.8-124.7H6630.1v163c0,272.3-113.2,475.6-324.1,583c-53.7,28.8-78.6,53.7-78.6,80.5c0,166.9-226.3,255.1-347.1,134.2c-36.4-36.4-55.6-76.7-55.6-113.1c0-47.9-13.4-65.2-80.6-99.7c-222.5-113.2-341.4-333.7-341.4-627.1v-120.8H3034.2c-2627.4,0-2458.6-7.7-2514.2,124.7c-23,55.6-26.9,431.5-26.9,2437.5c0,2115.3,3.8,2378.1,30.7,2433.7c61.4,132.3-101.7,124.7,2512.3,124.7H5397L5408.5,2488.8z"/><path d="M6937,1643.1v-201.4h978.1h978.1v201.4v201.4h-978.1H6937V1643.1z"/><path d="M2134.8,1470.5c-237.8-90.1-360.6-335.6-331.8-657.8c24.9-266.6,103.6-398.9,291.5-492.9c101.6-51.8,130.4-55.6,287.7-55.6c354.8,3.8,533.1,149.6,584.9,477.5c51.8,320.3-55.6,588.8-276.2,705.7C2589.3,1501.2,2249.9,1514.6,2134.8,1470.5z M2554.8,1115.7c51.8-51.8,57.5-72.9,63.3-199.4c9.6-176.4-24.9-262.7-124.7-308.8c-138.1-65.2-285.8-1.9-333.7,140c-28.8,86.3-11.5,278.1,30.7,341.4C2265.2,1203.9,2451.2,1217.3,2554.8,1115.7z"/><path d="M3603.8,1447.4C3542.5,1393.8,2334.2-923,2334.2-988.2c0-155.3,203.3-228.2,310.7-109.3c17.3,21.1,303,556.2,636.7,1192.9c652.1,1242.7,652.1,1244.7,558.1,1336.7C3782.2,1489.6,3663.3,1497.3,3603.8,1447.4z"/><path d="M5947.4,1115.7c-23-7.7-59.5-40.3-82.5-69c-36.4-46-40.3-74.8-40.3-316.4c0-289.6,15.3-349,97.8-393.1c92.1-46,166.9-34.5,239.7,38.4l65.2,65.2v260.8c0,299.2-19.2,362.5-124.7,406.6C6027.9,1138.7,6004.9,1138.7,5947.4,1115.7z"/><path d="M7358.9,1029.4V923.9h769h767.1l-5.8,101.6l-5.7,99.7l-761.4,5.7l-763.3,3.8V1029.4z"/><path d="M6937,415.7V214.3h978.1h978.1v201.4V617h-978.1H6937V415.7z"/><path d="M3701.6,60.9c-178.4-38.4-299.2-134.2-374-297.3c-38.4-82.5-44.1-126.6-44.1-316.4s5.8-234,44.1-316.4c82.5-178.4,197.5-262.8,410.4-295.4c143.8-23,327.9,0,437.3,55.6c99.7,51.8,207.1,182.2,239.7,295.4c36.4,120.8,36.4,400.8,1.9,517.8c-49.9,163-163,281.9-316.4,335.6C4008.5,70.5,3797.5,82,3701.6,60.9z M3964.4-270.9c86.3-44.1,134.2-140,134.2-270.4c0-211-109.3-333.7-278.1-308.8C3676.7-829,3607.7-712,3623-512.6C3638.4-301.6,3799.4-186.5,3964.4-270.9z"/><path d="M7358.9-198v-105.5h769h767.1l-5.8,101.6l-5.7,99.7l-761.4,5.8l-763.3,3.8V-198z"/><path d="M5880.3-263.2l-55.6-55.6v-291.5v-291.5l55.6-55.6c92.1-90.1,249.3-71,314.5,40.3c26.9,42.2,32.6,105.5,32.6,306.9c0,147.7-9.6,268.5-21.1,293.4c-36.4,72.9-97.8,109.3-186,109.3C5953.2-207.6,5926.3-219.1,5880.3-263.2z"/><path d="M7147.9-811.7v-105.5h874.5h872.6l-5.8,101.6l-5.7,99.7l-866.9,5.8l-868.8,3.8V-811.7z"/><path d="M6937-1425.4v-201.4h978.1h978.1v201.4v201.4h-978.1H6937V-1425.4z"/></g></g>
</svg>